<?xml version="1.0" standalone="no"?>
<!DOCTYPE svg PUBLIC "-//W3C//DTD SVG 20010904//EN"
 "http://www.w3.org/TR/2001/REC-SVG-20010904/DTD/svg10.dtd">
<svg version="1.0" xmlns="http://www.w3.org/2000/svg"
 width="500.000000pt" height="500.000000pt" viewBox="0 0 500.000000 500.000000"
 preserveAspectRatio="xMidYMid meet">
<metadata>
Created by potrace 1.14, written by Peter Selinger 2001-2017
</metadata>
<g transform="translate(0.000000,500.000000) scale(0.100000,-0.100000)"
fill="#000000" stroke="none">
<path d="M1335 4949 c-168 -25 -370 -94 -520 -180 -415 -236 -699 -650 -765
-1114 -13 -94 -13 -2216 0 -2310 95 -665 630 -1200 1295 -1295 94 -13 2216
-13 2310 0 665 95 1200 630 1295 1295 6 43 10 489 10 1155 0 666 -4 1112 -10
1155 -95 665 -630 1200 -1295 1295 -87 12 -2234 11 -2320 -1z m2963 -1576 c15
-20 32 -79 32 -110 0 -18 -6 -23 -25 -23 -20 0 -26 7 -35 39 -5 21 -17 44 -25
51 -23 19 -77 4 -119 -33 l-38 -32 11 -115 c6 -63 11 -123 11 -133 0 -17 7
-18 85 -12 l85 7 0 -25 c0 -31 -2 -31 -199 -47 -139 -11 -156 -8 -149 26 2 15
14 20 53 22 28 2 53 6 57 10 5 5 -13 264 -21 311 -1 2 -28 1 -61 -1 -59 -4
-60 -4 -60 22 0 25 4 28 53 34 93 11 107 8 117 -20 l10 -26 38 30 c65 52 151
63 180 25z m-618 -68 c34 -32 50 -93 51 -193 0 -37 3 -85 7 -107 7 -36 10 -40
37 -40 23 0 31 -5 33 -21 2 -17 -4 -23 -29 -28 -64 -12 -79 -8 -85 24 -8 36
-17 38 -37 6 -36 -54 -152 -74 -214 -36 -21 13 -35 31 -42 57 -14 50 -14 59 4
97 24 51 82 77 181 84 52 3 84 9 84 16 -1 34 -21 92 -36 103 -32 24 -110 15
-195 -21 -10 -5 -19 1 -26 17 -11 23 -9 26 27 42 58 26 100 34 158 31 42 -2
58 -8 82 -31z m-467 -15 c31 -24 33 -35 46 -190 6 -69 14 -149 17 -178 l6 -53
-34 3 -33 3 -12 145 c-6 80 -14 159 -18 176 -13 71 -74 71 -105 1 -18 -40 -18
-52 -7 -190 9 -100 9 -147 2 -147 -5 0 -20 -3 -31 -6 -21 -5 -22 -1 -34 158
-7 90 -17 173 -21 186 -18 49 -78 41 -104 -14 -15 -33 -16 -49 -6 -160 16
-186 17 -184 -19 -184 -17 0 -30 5 -30 13 0 6 -7 86 -15 177 -20 225 -20 240
5 240 13 0 22 -9 26 -25 6 -24 24 -35 24 -15 0 6 11 22 25 35 36 37 95 35 128
-4 l24 -29 26 33 c37 47 98 58 140 25z m-2169 -12 c5 -26 46 -530 46 -565 0
-19 -6 -23 -29 -23 -27 0 -30 3 -35 43 -12 91 -26 289 -26 361 0 42 -4 76 -8
76 -4 0 -32 -52 -61 -115 -30 -63 -59 -115 -65 -115 -11 0 -111 128 -147 188
-20 33 -28 27 -18 -15 8 -39 39 -370 39 -424 0 -26 -3 -29 -30 -29 -17 0 -30
5 -30 13 0 6 -11 140 -25 297 -25 297 -25 299 17 300 11 0 50 -43 98 -107 45
-60 84 -109 88 -110 4 -1 32 50 62 113 51 110 69 131 107 133 7 1 15 -9 17
-21z m1585 -54 c39 -33 50 -73 65 -250 12 -152 12 -154 -33 -154 -16 0 -19 17
-30 141 -12 151 -26 200 -61 219 -54 29 -135 3 -171 -53 -19 -29 -20 -43 -14
-147 3 -63 8 -130 12 -148 5 -33 5 -33 -28 -30 l-34 3 -11 136 c-6 74 -14 156
-18 182 -7 44 -9 47 -37 47 -24 0 -29 4 -29 24 0 19 6 24 38 30 65 10 69 9 77
-31 l7 -38 26 32 c39 46 78 63 149 63 52 0 66 -4 92 -26z m-585 -45 c41 -32
47 -52 57 -186 11 -157 13 -163 50 -163 24 0 29 -4 29 -25 0 -22 -4 -25 -39
-25 -22 0 -46 -3 -55 -6 -11 -4 -17 4 -22 30 l-6 36 -43 -39 c-50 -46 -111
-61 -169 -41 -53 17 -76 52 -76 114 0 92 45 126 180 135 l85 6 -1 44 c-1 35
-7 49 -28 68 -33 28 -69 29 -148 2 -49 -16 -63 -18 -69 -7 -17 26 -8 37 44 57
73 28 175 28 211 0z m-439 -31 c-3 -13 -30 -135 -60 -273 -33 -150 -62 -260
-73 -274 -34 -47 -69 -65 -122 -65 -58 0 -74 11 -65 46 6 24 9 25 46 16 48
-13 84 7 105 57 21 52 18 63 -18 67 -30 3 -36 11 -136 202 -81 155 -101 200
-91 207 37 24 52 6 144 -173 75 -147 94 -178 112 -178 24 0 21 -10 69 237 29
145 31 149 77 152 13 1 16 -4 12 -21z m1774 -884 c12 -15 21 -37 21 -50 0 -21
-5 -24 -37 -24 -64 0 -113 -12 -113 -26 0 -8 9 -23 21 -35 21 -21 54 -22 119
-4 l25 7 -24 -21 c-34 -31 -110 -29 -140 3 -27 29 -37 92 -19 126 29 54 113
68 147 24z m-229 -13 c12 -24 13 -51 1 -51 -5 0 -12 11 -15 25 -7 29 -31 32
-64 9 -23 -16 -27 -40 -16 -106 6 -36 8 -38 45 -38 22 0 39 -4 39 -10 0 -5
-19 -10 -42 -10 -24 0 -60 -3 -80 -6 -24 -4 -38 -3 -38 4 0 6 10 12 23 14 25
3 33 43 22 116 -6 40 -9 44 -31 39 -16 -3 -23 0 -21 7 5 16 58 20 67 5 6 -9
13 -8 31 5 31 22 66 20 79 -3z m-1010 -1 c0 -5 -16 -10 -35 -10 -24 0 -37 -6
-45 -19 -18 -34 -11 -41 35 -41 25 0 45 -4 45 -10 0 -5 -18 -10 -40 -10 -40 0
-40 0 -40 -37 0 -21 3 -55 6 -75 6 -36 8 -38 45 -38 22 0 39 -4 39 -10 0 -5
-10 -10 -22 -10 -13 0 -47 -3 -75 -6 -37 -5 -53 -3 -53 5 0 6 9 11 20 11 17 0
20 7 20 43 0 23 -3 58 -6 78 -5 31 -9 35 -30 31 -13 -2 -24 0 -24 6 0 6 10 12
22 14 16 2 24 12 29 37 4 18 13 37 21 42 18 12 88 11 88 -1z m196 -47 c30 3
54 2 54 -3 0 -10 -37 -20 -78 -20 l-32 0 6 -57 c4 -32 11 -66 16 -75 10 -20
58 -24 89 -8 22 12 26 -2 6 -18 -16 -14 -64 -18 -94 -8 -27 9 -34 26 -42 101
-5 55 -8 60 -28 57 -28 -4 -30 14 -3 21 12 3 20 14 20 25 0 30 24 33 28 4 3
-24 6 -24 58 -19z m534 18 c5 -11 10 -35 10 -54 0 -59 11 -96 26 -90 8 3 14 1
14 -5 0 -10 -23 -22 -41 -22 -5 0 -9 7 -9 15 0 8 -4 15 -10 15 -5 0 -10 -4
-10 -8 0 -10 -45 -32 -65 -32 -20 0 -55 36 -55 55 0 31 47 65 90 65 43 0 50
12 26 45 -11 15 -21 17 -60 12 -25 -4 -46 -3 -46 2 0 12 25 18 77 20 32 1 45
-4 53 -18z m-1244 -1 c9 0 14 -11 14 -30 0 -34 -19 -41 -27 -10 -4 14 -14 20
-35 20 -43 0 -68 -17 -68 -46 0 -21 9 -29 48 -45 80 -34 89 -40 101 -65 13
-30 1 -66 -31 -88 -24 -17 -56 -20 -107 -10 -28 6 -31 10 -31 41 0 38 23 42
28 5 6 -36 95 -38 117 -2 17 28 -5 59 -56 77 -93 33 -124 86 -76 130 21 21 68
33 95 26 8 -1 20 -3 28 -3z m1041 -12 c-3 -13 -9 -58 -12 -100 -9 -94 -26
-102 -58 -28 -12 27 -25 50 -28 50 -4 0 -13 -24 -21 -52 -23 -82 -40 -74 -72
33 -15 50 -25 93 -22 96 12 12 25 -11 42 -76 9 -39 21 -68 24 -66 4 2 12 29
19 60 7 30 18 55 25 55 7 0 23 -26 36 -57 19 -46 25 -53 31 -37 4 10 8 37 8
59 2 51 11 85 23 85 6 0 8 -10 5 -22z m-777 -73 c19 -20 24 -37 24 -75 0 -62
-23 -89 -82 -97 -36 -5 -45 -2 -72 25 -24 25 -30 39 -30 75 0 66 28 97 89 97
38 0 52 -5 71 -25z m1778 -611 c12 -4 22 -12 22 -19 0 -10 -8 -11 -32 -3 -59
18 -119 -25 -70 -50 9 -5 34 -12 55 -15 47 -7 67 -23 67 -52 0 -36 -34 -59
-90 -59 -28 0 -55 5 -62 12 -19 19 -2 25 35 13 47 -16 90 0 85 31 -2 19 -14
26 -61 38 -65 17 -84 37 -67 70 18 33 67 47 118 34z m-208 -33 c12 -24 13 -51
1 -51 -5 0 -12 11 -15 25 -7 29 -31 32 -64 9 -23 -16 -27 -40 -16 -106 6 -36
8 -38 45 -38 22 0 39 -4 39 -10 0 -5 -19 -10 -42 -10 -24 0 -60 -3 -80 -6 -24
-4 -38 -3 -38 4 0 6 10 12 23 14 25 3 33 43 22 116 -6 40 -9 44 -31 39 -16 -3
-23 0 -21 7 5 16 58 20 67 5 6 -9 13 -8 31 5 31 22 66 20 79 -3z m-1062 -8 c5
-17 -26 -29 -40 -15 -6 6 -7 15 -3 22 9 14 37 9 43 -7z m791 -17 c7 -8 16 -27
20 -44 9 -29 7 -30 -28 -36 -20 -3 -53 -6 -73 -6 -45 0 -55 -13 -34 -45 22
-33 60 -41 102 -22 21 10 36 13 39 6 7 -11 -54 -39 -85 -39 -33 0 -78 28 -86
52 -14 46 -7 98 16 123 19 20 33 25 71 25 28 0 51 -6 58 -14z m-250 -20 c7 -8
16 -27 20 -44 9 -29 7 -30 -28 -36 -20 -3 -53 -6 -73 -6 -45 0 -55 -13 -34
-45 22 -33 60 -41 102 -22 21 10 36 13 39 6 7 -11 -54 -39 -85 -39 -33 0 -78
28 -86 52 -14 46 -7 98 16 123 19 20 33 25 71 25 28 0 51 -6 58 -14z m-246
-16 c22 -20 38 -180 18 -180 -10 0 -21 49 -21 94 0 66 -56 99 -96 55 -15 -16
-18 -33 -15 -90 1 -38 -2 -69 -7 -69 -11 0 -22 48 -22 100 0 48 -8 70 -26 70
-8 0 -14 5 -14 10 0 15 48 12 53 -2 3 -10 9 -9 23 3 31 27 83 32 107 9z m-989
1 c3 -4 -24 -11 -60 -14 -36 -2 -67 -7 -69 -9 -3 -2 -1 -24 3 -49 l8 -44 57 3
c78 5 75 -15 -4 -24 -55 -6 -60 -9 -55 -28 3 -11 6 -36 6 -54 l0 -33 70 7 c46
4 70 3 70 -4 0 -11 -147 -29 -156 -19 -6 6 -23 173 -24 229 0 32 3 37 28 41
52 8 121 7 126 -2z m690 -33 c3 -13 6 -44 6 -70 0 -67 7 -78 46 -78 19 0 34
-4 34 -10 0 -5 -17 -10 -39 -10 -21 0 -59 -3 -85 -6 -31 -5 -46 -3 -46 5 0 6
13 11 29 11 17 0 33 5 36 11 4 5 4 42 0 80 l-7 71 -34 -7 c-35 -6 -49 10 -16
18 45 12 70 7 76 -15z m-179 -65 c3 -38 8 -89 11 -115 5 -41 2 -50 -20 -73
-20 -20 -35 -25 -76 -25 -36 0 -50 4 -50 14 0 10 11 12 43 9 52 -6 77 13 77
59 0 30 -1 30 -18 15 -11 -10 -35 -17 -60 -17 -48 0 -71 25 -78 87 -9 72 33
113 118 113 l46 0 7 -67z m-265 32 c17 -21 30 -175 14 -175 -7 0 -15 27 -19
70 -4 40 -13 77 -22 85 -20 21 -49 19 -74 -6 -18 -18 -20 -30 -17 -90 2 -48
-1 -69 -9 -69 -7 0 -14 29 -19 81 -4 54 -11 82 -20 86 -21 8 -17 23 6 23 10 0
23 -7 28 -15 7 -14 11 -13 27 5 22 24 86 27 105 5z"/>
<path d="M3499 3077 c-39 -26 -49 -65 -25 -102 21 -32 64 -40 115 -19 54 21
81 56 81 105 l0 39 -69 0 c-54 0 -75 -5 -102 -23z"/>
<path d="M1895 2955 c-69 -25 -85 -75 -39 -122 22 -22 32 -25 70 -20 79 8 130
64 118 126 -6 30 -8 31 -58 31 -28 -1 -69 -7 -91 -15z"/>
<path d="M3272 2254 c-12 -8 -22 -24 -22 -36 0 -18 4 -20 38 -14 20 3 47 6 60
6 26 0 29 22 6 44 -20 20 -53 20 -82 0z"/>
<path d="M2778 2129 c-44 -25 0 -82 45 -58 27 14 37 28 37 52 0 13 -8 17 -32
17 -18 0 -41 -5 -50 -11z"/>
<path d="M1778 2129 c-25 -14 -33 -71 -14 -107 24 -47 71 -57 106 -22 31 31
23 108 -14 132 -16 11 -58 9 -78 -3z"/>
<path d="M3077 1442 c-29 -32 -21 -42 36 -42 68 0 82 9 61 38 -19 28 -74 30
-97 4z"/>
<path d="M2827 1422 c-29 -32 -21 -42 36 -42 68 0 82 9 61 38 -19 28 -74 30
-97 4z"/>
<path d="M2091 1361 c-44 -44 -17 -141 39 -141 47 0 61 23 58 94 l-3 61 -37 3
c-27 2 -43 -3 -57 -17z"/>
</g>
</svg>
